<svg width="18" height="18" viewBox="0 0 18 18" fill="none" xmlns="http://www.w3.org/2000/svg">
<path d="M8.54297 11.9531C8.15625 12.3398 7.55859 12.3398 7.17188 11.9531L4.92188 9.70312C4.53516 9.31641 4.53516 8.71875 4.92188 8.33203C5.30859 7.94531 5.90625 7.94531 6.29297 8.33203L7.875 9.87891L11.6719 6.08203C12.0586 5.69531 12.6562 5.69531 13.043 6.08203C13.4297 6.46875 13.4297 7.06641 13.043 7.45312L8.54297 11.9531ZM18 9C18 13.9922 13.957 18 9 18C4.00781 18 0 13.9922 0 9C0 4.04297 4.00781 0 9 0C13.957 0 18 4.04297 18 9ZM9 1.6875C4.95703 1.6875 1.6875 4.99219 1.6875 9C1.6875 13.043 4.95703 16.3125 9 16.3125C13.0078 16.3125 16.3125 13.043 16.3125 9C16.3125 4.99219 13.0078 1.6875 9 1.6875Z" fill="#49A2A8"/>
</svg>
